<svg xmlns="http://www.w3.org/2000/svg" width="1024" height="1024" viewBox="0 0 1024 1024"><defs><linearGradient id="a" x1="571.786" x2="452.216" y1="1024.691" y2="1.105" gradientUnits="userSpaceOnUse"><stop offset="0" stop-color="#001735"/><stop offset="1" stop-color="#0b3873"/></linearGradient></defs><path fill="url(#a)" d="M73.077 110.408c5.288-8.188 17.84-20.805 24.973-27.428a228.94 228.94 0 0 1 136.333-61.349c17.925-1.735 37.364-1.437 55.455-1.466l69.311-.028 91.794.035c16.816.008 35.652-.392 52.333.227a542 542 0 0 1 18.305-.01c14.162-.444 29.936-.136 44.221-.134l81.601.058 75.957-.007c29.055.026 58.93-.975 87.501 4.124 3.629.648 12.013 2.157 15.161 3.304 53.212 11.472 106.015 49.064 135.33 94.762 1.194 1.862 2.505 3.833 3.523 5.787 2.992 2.911 10.169 17.682 12.341 21.863 19.448 37.442 23.424 77.215 23.874 118.804l.33 351.455.05 99.151c.05 31.227 1.74 64.415-4.773 94.873a235.4 235.4 0 0 1-61.354 116.381 235.07 235.07 0 0 1-133.342 68.021c-13.313 1.939-28.003 2.469-41.488 2.589l-349.773.03-104.705-.02c-29.924-.01-66.244 1.38-95.113-4.966a238.54 238.54 0 0 1-117.13-62.753c-35.225-34.66-59.58-80.237-67.674-129.165-2.264-13.687-2.723-28.827-2.834-42.66l-.133-351.83-.17-103.755c-.06-31.415-.904-65.371 4.447-96.308 5.048-29.189 18.834-59.73 34.71-84.518 2.39-3.732 7.933-12.011 10.939-15.067"/><defs><linearGradient id="b" x1="310.721" x2="267.564" y1="-24.851" y2="155.659" gradientUnits="userSpaceOnUse"><stop offset="0" stop-color="#054082"/><stop offset="1" stop-color="#2e57a0"/></linearGradient></defs><path fill="url(#b)" d="M73.077 110.408c5.288-8.188 17.84-20.805 24.973-27.428a228.94 228.94 0 0 1 136.333-61.349c17.925-1.735 37.364-1.437 55.455-1.466l69.311-.028 91.794.035c16.816.008 35.652-.392 52.333.227 1.91 2.648 2.326 2.544 5.555 2.698-3.014.902-8.845.884-12.148 1.234-18.257 1.924-36.401.607-54.682.166-3.435-.082-11.451 2.26-13.955 1.68-10.2-2.41-16.883-2.781-27.272-.843-3.148.503-11.795-1.73-14.284-1.224-7.245 1.472-18.918-.633-25.234.558-12.102 2.28-17.596 2.616-29.688-.093-2.87-.643-11.602 1.312-15.111.74-13.031-1.553-25.523-1.784-38.53-2.057-10.86-1.63-18.064.553-28.298 2.08-10.397 1.55-23.648 3.714-34.019 4.472-34.288 2.505-68.287 20.123-95.738 40.069-11.818 8.587-26.93 21.588-36.324 32.906-2.588 3.243-5.638 8.011-10.471 7.623"/><path fill="#1d5196" d="M826.022 27.734c53.212 11.472 106.015 49.064 135.33 94.762 1.194 1.862 2.505 3.833 3.523 5.787-3.21-1.63-19.041-21.355-22.86-25.687-21.014-24.233-44.426-42.728-73.412-56.572-6.933-3.311-40.108-13.68-42.581-18.29"/><path fill="#1d5196" d="M503.276 20.4a542 542 0 0 1 18.305-.011c-3.393 3.143-8.081 2.608-12.75 2.708-3.229-.154-3.645-.05-5.555-2.698"/><path fill="#0d3678" d="M359.76 380.432c.738 1.907 3.991 9.64 4.128 10.946 3.33 6.661 13.099 31.505 15.422 39.014.851 1.252 23.599 57.72 23.885 59.61l1.887 4.475.28.666c.055.277.291 1.323.277 1.559-7.064 1.355-6.357 5.133-11.472 8.776-1.731 1.233-7.111 3.221-9.321 4.345-28.9 14.694-55.183 34.228-77.875 57.367-2.32 2.365-8.276 2.9-8.774 5.282-1.682 8.059-6.209 11.708-11.284 18.127-5.324 6.734-11.431 13.948-16.392 21.078-17.197 23.444-29.016 51.863-38.834 79.116-3.089 8.576-6.141 25.737-15.186 28.874a23.3 23.3 0 0 1-13.483.421c-4.182-1.102-11.712-4.639-15.821-6.477l-26.702-12.091c-11.059-5.027-22.221-9.957-33.34-14.864-2.756-1.216-6.232-4.043-8.863-4.627l-1.693.843c-1.897-1.234-4.714-7.997-4.361-10.028.618-.437.703-.566 1.395-.851-.246-1.128-3.455-4.755-4.432-5.926.867-10.28 6.555-22.248 10.544-31.977 20.548-50.13 53.241-103.956 89.769-144.14 1.986-1.466 3.962-1.758 6.391-2.46 1.479-1.479 2.124-2.346 3.977-3.221l.444-2.93-.689-2.003c2.762-4.356 11.151-12.482 15.056-16.245a442.7 442.7 0 0 1 93.127-69.407c6.078-3.415 12.637-7.514 19.093-10.067 2.736-1.082 3.683-1.305 6.24-.113.851.596 4.583-1.362 5.633-1.808z"/><path fill="#0d3678" d="M359.76 380.432c.738 1.907 3.991 9.64 4.128 10.946 3.33 6.661 13.099 31.505 15.422 39.014.851 1.252 23.599 57.72 23.885 59.61-.033 1.934.186 2.964-.999 4.451-1.739 1.017-2.676 1.317-4.587 2.027l-.448.065-2.229.848c-2.265.518-8.823 4.551-11.261 5.734-31.686 15.371-57.344 35.833-82.17 60.583-8.761-8.3-17.17-17.925-25.457-26.809a3927 3927 0 0 0-36.528-38.723c-3.447-3.654-13.861-16.152-17.254-17.647l-1.936.808-.689-2.003c2.762-4.356 11.151-12.482 15.056-16.245a442.7 442.7 0 0 1 93.127-69.407c6.078-3.415 12.637-7.514 19.093-10.067 2.736-1.082 3.683-1.305 6.24-.113.851.596 4.583-1.362 5.633-1.808z"/><path fill="#0d3678" d="M359.76 380.432c.738 1.907 3.991 9.64 4.128 10.946 3.33 6.661 13.099 31.505 15.422 39.014.851 1.252 23.599 57.72 23.885 59.61-.033 1.934.186 2.964-.999 4.451-1.739 1.017-2.676 1.317-4.587 2.027l-.448.065-2.229.848c-2.477-2.249-38.649-97.574-44.332-111.448 1.253-.934 1.499-1.306 2.553-2.441.851.596 4.583-1.362 5.633-1.808z"/><path fill="#1d5196" d="M358.786 381.696c-.775 2.554-2.851 2.482-5.173 3.562l31.148 79.627 8.342 21.34c.935 2.344 3.467 8.15 4.058 10.32l-2.229.848c-2.477-2.249-38.649-97.574-44.332-111.448 1.253-.934 1.499-1.306 2.553-2.441.851.596 4.583-1.362 5.633-1.808"/><path fill="#001f4d" d="M363.888 391.378c3.33 6.661 13.099 31.505 15.422 39.014-2.437-2.688-15.081-35.007-15.422-39.014"/><path fill="#3678b5" d="M219.637 479.336c2.762-4.356 11.151-12.482 15.056-16.245a442.7 442.7 0 0 1 93.127-69.407c6.078-3.415 12.637-7.514 19.093-10.067 2.736-1.082 3.683-1.305 6.24-.113-1.054 1.135-1.3 1.507-2.553 2.441-7.556 2.968-15.7 7.576-22.803 11.586a447.6 447.6 0 0 0-79.18 56.998c-7.609 6.934-17.35 18.789-26.032 24.692-.594.404-2.188.196-2.948.115"/><path fill="#011635" d="m220.326 481.339 1.936-.808c3.393 1.495 13.807 13.993 17.254 17.647a3927 3927 0 0 1 36.528 38.723c8.287 8.884 16.696 18.509 25.457 26.809 24.826-24.75 50.484-45.212 82.17-60.583 2.438-1.183 8.996-5.216 11.261-5.734l2.229-.848.448-.065c1.911-.71 2.848-1.01 4.587-2.027 1.185-1.487.966-2.517.999-4.451l1.887 4.475.28.666c.055.277.291 1.323.277 1.559-7.064 1.355-6.357 5.133-11.472 8.776-1.731 1.233-7.111 3.221-9.321 4.345-28.9 14.694-55.183 34.228-77.875 57.367-2.32 2.365-8.276 2.9-8.774 5.282-1.682 8.059-6.209 11.708-11.284 18.127-5.324 6.734-11.431 13.948-16.392 21.078-17.197 23.444-29.016 51.863-38.834 79.116-3.089 8.576-6.141 25.737-15.186 28.874a23.3 23.3 0 0 1-13.483.421c-4.182-1.102-11.712-4.639-15.821-6.477l-26.702-12.091c-11.059-5.027-22.221-9.957-33.34-14.864-2.756-1.216-6.232-4.043-8.863-4.627l-1.693.843c-1.897-1.234-4.714-7.997-4.361-10.028.618-.437.703-.566 1.395-.851 2.2 2.969 5.165 5.581 8.54 7.163 22.894 10.721 46.208 20.573 69.016 31.506 4.305 2.064 11.126 5.201 15.918 5.23 12.385.075 15.239-13.377 18.172-22.745 1.874-5.987 3.756-12.112 6.014-18.012a320.6 320.6 0 0 1 44.948-80.864c5.014-6.644 10.853-14.24 16.801-20.01l2.082-1.223c-8.035-10.713-78.326-81.353-78.809-84.175l-.41-1.373c1.479-1.479 2.124-2.346 3.977-3.221z"/><path fill="#001f4d" d="m220.326 481.339 1.936-.808c3.393 1.495 13.807 13.993 17.254 17.647a3927 3927 0 0 1 36.528 38.723c8.287 8.884 16.696 18.509 25.457 26.809 24.826-24.75 50.484-45.212 82.17-60.583 2.438-1.183 8.996-5.216 11.261-5.734l2.229-.848.448-.065c.091 1.083.303 2.395-.848 3.219-7.676 5.499-19.741 11.031-27.734 15.659a313 313 0 0 0-20.594 13.197 324 324 0 0 0-25.642 20.206c-5.485 4.76-15.785 15.704-21.199 18.233-7.489-5.496-17.376-16.719-23.966-23.63l-40.359-42.702c-3.096-3.303-12.289-14.313-15.771-16.052 4.733 6.653 19.524 21.554 25.662 28.089a5621 5621 0 0 0 52.008 54.855c-1.494 1.849-2.879 3.407-4.042 5.484-8.035-10.713-78.326-81.353-78.809-84.175l-.41-1.373c1.479-1.479 2.124-2.346 3.977-3.221z"/><path fill="#0d3678" d="M219.882 484.269c-.393 1.964-2.054 3.18-3.567 4.594l-.41-1.373c1.479-1.479 2.124-2.346 3.977-3.221"/><path fill="#1d5196" d="m215.905 487.49.41 1.373c.483 2.822 70.774 73.462 78.809 84.175l-2.082 1.223c-7.358-6.475-15.791-15.749-22.56-23.032l-30.917-33.345c-8.089-8.673-20.052-22.404-30.051-27.934 1.986-1.466 3.962-1.758 6.391-2.46"/><defs><linearGradient id="c" x1="850.731" x2="649.833" y1="555.142" y2="458.453" gradientUnits="userSpaceOnUse"><stop offset="0" stop-color="#07714d"/><stop offset="1" stop-color="#1cab7c"/></linearGradient></defs><path fill="url(#c)" d="M674.87 378.404c2.149 1.364 4.763 2.807 7.269 3.374 2.273-.988 2.887-1.36 5.383-.208 19.676 9.076 39.713 19.998 57.365 32.5 20.663-7.424 37.768-8.116 58.102 1.33a59.4 59.4 0 0 1 23.333 19.882c6.66 8.868 10.608 18.904 12.525 29.794l.199 1.347c1.696 8.365.534 22.584-2.655 30.524l1.29 1.566c1.965 2.257 4.508 4.989 6.076 7.435 6.443 7.241 16.982 21.815 22.102 30.061l-.108 2.062c-4.189 3.692-15.773 10.856-17.851 13.06a5163 5163 0 0 0-53.355 37.336c-6.56 4.646-23.042 16.89-29.757 20.346-2.316.928-2.99.68-5.58.477-2.08-7.141-9.146-14.206-13.722-19.732-26.995-32.612-60.624-60.97-98.516-80.047-3.324-1.673-12.227-5.632-13.425-8.735l.977-2.223c-.351-2.976-2.351-3.068-4.742-4.732-.92-2.187-.598-1.614-.152-4.359 14.56-36.699 31.536-74.485 45.242-111.058"/><path fill="#f5f5f4" d="M724.273 480.94c.322-7.265-.283-13.572 2.16-20.579 4.424-12.692 13.524-23.41 25.744-29.158a47.75 47.75 0 0 1 36.993-1.51c11.928 4.397 21.922 13.998 27.221 25.497 1.951 4.895 2.678 7.476 4.031 12.505.029 3.195.145 6.86.032 10.011-.36 1.397-.651 3.198-1.491 4.285-1.168-.321-1.19-.335-2.245-.933a44.92 44.92 0 0 1-17.927 29.606c-14.02 10.292-31.382 11.789-46.528 3.991-1.07-.551-3.698-2.032-4.71-2.356-7.577-.536-9.968-10.737-16.901-12.685-1.262-1.511-2.074-3.658-2.899-5.486-1.727-5.041-2.551-7.961-3.48-13.188"/><path fill="#c5c1c3" d="m727.753 494.128 2.9 1.602c.661-1.91-1.774-4.423-.93-6.134.815 1.67 2.289 6.062 2.808 6.895 3.809 6.116 10.241 11.008 15.022 15.808-7.577-.536-9.968-10.737-16.901-12.685-1.262-1.511-2.074-3.658-2.899-5.486"/><path fill="#c5c1c3" d="M817.385 472.562c.328 2.364.502 8.078 1.578 9.429-1.168-.321-1.19-.335-2.245-.933z"/><defs><linearGradient id="d" x1="789.633" x2="773.607" y1="537.555" y2="460.764" gradientUnits="userSpaceOnUse"><stop offset="0" stop-color="#024930"/><stop offset="1" stop-color="#0da16d"/></linearGradient></defs><path fill="url(#d)" d="m816.391 455.19.516-.728c.725-1.037.964-1.557 1.512-2.688 5.428-1.841 15.828 16.748 18.12 20.831l.387-.337c.052-3.897-.437-3.952 1.921-7.192l.199 1.347c1.696 8.365.534 22.584-2.655 30.524l-1.972 3.136c-1.245.891-2.33 1.812-3.766 2.303-.73 1.237-1.433 2.3-1.989 3.621-1.235 6.832-14.617 19.084-20.495 23.18a62.52 62.52 0 0 1-47.823 10.134c-7.759-1.462-21.89-7.116-27.023-13.092-.237-3.715-6.723-8.171-8.423-12.698-4.248-11.307-5.029-19.744-1.264-30.777.039-.266.526-1.512.637-1.814.929 5.227 1.753 8.147 3.48 13.188.825 1.828 1.637 3.975 2.899 5.486 6.933 1.948 9.324 12.149 16.901 12.685 1.012.324 3.64 1.805 4.71 2.356 15.146 7.798 32.508 6.301 46.528-3.991a44.92 44.92 0 0 0 17.927-29.606c1.055.598 1.077.612 2.245.933.84-1.087 1.131-2.888 1.491-4.285.113-3.151-.003-6.816-.032-10.011-1.353-5.029-2.08-7.61-4.031-12.505"/><defs><linearGradient id="e" x1="778.699" x2="775.685" y1="522.401" y2="485.912" gradientUnits="userSpaceOnUse"><stop offset="0" stop-color="#878585"/><stop offset="1" stop-color="#bcbcbb"/></linearGradient></defs><path fill="url(#e)" d="M818.963 481.991c.84-1.087 1.131-2.888 1.491-4.285-.162 17.267-10.339 30.901-24.412 39.956-12.285 5.707-18.694 7.141-32.026 5.669-15.288-4.441-24.899-9.276-33.364-23.717 6.933 1.948 9.324 12.149 16.901 12.685 1.012.324 3.64 1.805 4.71 2.356 15.146 7.798 32.508 6.301 46.528-3.991a44.92 44.92 0 0 0 17.927-29.606c1.055.598 1.077.612 2.245.933"/><path fill="#003825" d="M723.636 482.754c.039-.266.526-1.512.637-1.814.929 5.227 1.753 8.147 3.48 13.188.825 1.828 1.637 3.975 2.899 5.486 8.465 14.441 18.076 19.276 33.364 23.717-3.452 1.964-4.381 3.428-8.785 5.372a63 63 0 0 1-2.138-.464c-8.97-2.132-11.435-7.047-15.872-14.268l-5.42-2.94c-2.569-9.502-5.797-18.605-8.165-28.277"/><path fill="#003825" d="M820.422 467.695c2.465 3.794.197 21.045-.854 25.642-2.003 8.761-5.064 17.963-13.186 22.773l-1.72 1.016c2.437-3.093 4.465-5.168 6.09-8.793l-.141-.614c-4.757 2.424-8.466 8.942-14.569 9.943 14.073-9.055 24.25-22.689 24.412-39.956.113-3.151-.003-6.816-.032-10.011"/><path fill="#047652" d="M839.046 466.423c1.696 8.365.534 22.584-2.655 30.524l-1.972 3.136c-1.245.891-2.33 1.812-3.766 2.303 2.851-7.342 5.634-13.923 5.993-21.891.116-.168 2.421-13.366 2.4-14.072"/><path fill="#14a370" d="M828.664 506.007c-.109-2.633 6.464-23.731 7.982-25.512-.359 7.968-3.142 14.549-5.993 21.891-.73 1.237-1.433 2.3-1.989 3.621"/><path fill="#14a370" d="M707.038 461.063c.937.351 1.783.665 2.705 1.058l.566.247c11.436-40.979 51.364-62.604 90.691-43.936-.421-.87-.399-.864-.677-1.78 2.151-.473 1.382.071 2.666-1.252a59.4 59.4 0 0 1 23.333 19.882c6.66 8.868 10.608 18.904 12.525 29.794-2.358 3.24-1.869 3.295-1.921 7.192l-.387.337c-2.292-4.083-12.692-22.672-18.12-20.831-.548 1.131-.787 1.651-1.512 2.688l-.516.728c-5.299-11.499-15.293-21.1-27.221-25.497a47.75 47.75 0 0 0-36.993 1.51c-12.22 5.748-21.32 16.466-25.744 29.158-2.443 7.007-1.838 13.314-2.16 20.579-.111.302-.598 1.548-.637 1.814-3.765 11.033-2.984 19.47 1.264 30.777 1.7 4.527 8.186 8.983 8.423 12.698-6.163-4.046-14.394-13.834-17.664-20.513-.686-1.401-3.681-7.31-4.46-8.108-1.098 1.399-.419.935-2.09 1.465a327 327 0 0 0-3.457-13.093c-.296-6.774-.487-11.158-.291-17.905.176-.416 1.27-5.621 1.677-7.012"/><path fill="#25b580" d="M802.989 415.4a59.4 59.4 0 0 1 23.333 19.882c-5.482.097-12.454-8.487-17.095-11.595-2.909-1.948-5.186-3.431-8.227-5.255-.421-.87-.399-.864-.677-1.78 2.151-.473 1.382.071 2.666-1.252"/><path fill="#005d41" d="M674.87 378.404c2.149 1.364 4.763 2.807 7.269 3.374-5.529 11.307-9.915 22.929-14.647 34.581l-18.371 44.655-9.538 22.672c-1.289 3.028-4.564 10.329-5.226 13.172 7.717.953 16.287 6.82 23.124 10.635a304.6 304.6 0 0 1 94.92 81.27c3.995 5.128 8.471 11.169 11.978 16.653 8.1-5.18 93.275-64.406 94.406-66.233 2.921-1.942 3.672-2.345 7.074-3.174l-.108 2.062c-4.189 3.692-15.773 10.856-17.851 13.06a5163 5163 0 0 0-53.355 37.336c-6.56 4.646-23.042 16.89-29.757 20.346-2.316.928-2.99.68-5.58.477-2.08-7.141-9.146-14.206-13.722-19.732-26.995-32.612-60.624-60.97-98.516-80.047-3.324-1.673-12.227-5.632-13.425-8.735l.977-2.223c-.351-2.976-2.351-3.068-4.742-4.732-.92-2.187-.598-1.614-.152-4.359 14.56-36.699 31.536-74.485 45.242-111.058"/><path fill="#003825" d="M634.522 498.553c2.478 3.062 8.326 4.951 12.075 6.896 42.687 22.146 80.674 53.862 109.067 92.742 3.098 4.242 4.827 7.433 9.124 10.622-2.316.928-2.99.68-5.58.477-2.08-7.141-9.146-14.206-13.722-19.732-26.995-32.612-60.624-60.97-98.516-80.047-3.324-1.673-12.227-5.632-13.425-8.735z"/><path fill="#003825" d="M742.573 546.084c-3.861-3.168-8.551-5.885-12.296-9.495-9.496-9.156-16.447-23.584-21.574-35.681-1.302-3.073-4.395-11.876-3.051-14.928a327 327 0 0 1 3.457 13.093c1.671-.53.992-.066 2.09-1.465.779.798 3.774 6.707 4.46 8.108 3.27 6.679 11.501 16.467 17.664 20.513 5.133 5.976 19.264 11.63 27.023 13.092a62.52 62.52 0 0 0 47.823-10.134c5.878-4.096 19.26-16.348 20.495-23.18.556-1.321 1.259-2.384 1.989-3.621 1.436-.491 2.521-1.412 3.766-2.303l1.183.696c2.306 11.693-10.988 20.963-9.077 26.959-1.67 2.256-8.291 12.868-9.506 13.405-8.576 3.794-20.424 13.099-29.928 13.922-12.484 1.081-23.831-.416-35.451-4.139-3.128-1.109-6.217-3.347-9.067-4.842"/><defs><linearGradient id="f" x1="781.94" x2="767.112" y1="541.858" y2="484.894" gradientUnits="userSpaceOnUse"><stop offset="0" stop-color="#004428"/><stop offset="1" stop-color="#007c55"/></linearGradient></defs><path fill="url(#f)" d="M709.109 499.073c1.671-.53.992-.066 2.09-1.465.779.798 3.774 6.707 4.46 8.108 3.27 6.679 11.501 16.467 17.664 20.513 5.133 5.976 19.264 11.63 27.023 13.092a62.52 62.52 0 0 0 47.823-10.134c5.878-4.096 19.26-16.348 20.495-23.18.556-1.321 1.259-2.384 1.989-3.621 1.436-.491 2.521-1.412 3.766-2.303l1.183.696c-1.884 1.798-4.706 8.169-6.479 11.024a67 67 0 0 1-35.628 27.933c-25.596 8.359-55.383.959-72.572-20.026-4.697-5.735-9.583-13.549-11.814-20.637"/><path fill="#42d5a0" d="M682.139 381.778c2.273-.988 2.887-1.36 5.383-.208 19.676 9.076 39.713 19.998 57.365 32.5 20.663-7.424 37.768-8.116 58.102 1.33-1.284 1.323-.515.779-2.666 1.252.278.916.256.91.677 1.78-39.327-18.668-79.255 2.957-90.691 43.936l-.566-.247c-.922-.393-1.768-.707-2.705-1.058 6.074-21.264 15.467-34.47 35.092-45.642-7.075-3.737-13.797-7.804-20.663-11.908a387 387 0 0 0-36.492-19.221c-6.412 13.647-44.268 109.519-47.495 112.092-1.364.306-1.74.402-3.123.474.662-2.843 3.937-10.144 5.226-13.172l9.538-22.672 18.371-44.655c4.732-11.652 9.118-23.274 14.647-34.581"/><path fill="#047652" d="M705.361 468.075c-.196 6.747-.005 11.131.291 17.905-1.344 3.052 1.749 11.855 3.051 14.928 5.127 12.097 12.078 26.525 21.574 35.681 3.745 3.61 8.435 6.327 12.296 9.495-6.063.012-13.072-3.161-16.554-8.239-.226-2.276-7.914-6.726-7.649-6.228-1.514-2.841-4.876-8.672-7.313-11.662-6.082-7.463-7.282-21.556-7.321-30.737-.016-3.763-.11-18.628 1.625-21.143"/><path fill="#14a370" d="M843.757 505.948c6.443 7.241 16.982 21.815 22.102 30.061-3.402.829-4.153 1.232-7.074 3.174 5.144-8.586-17.357-22.689-15.028-33.235"/><path fill="#005d41" d="m836.391 496.947 1.29 1.566c-1.567 4.071 1.071 6.536 3.425 9.664-2.764 5.146-8.4 17.796-12.787 20.417-1.333-.203-.711.007-1.794-.856-1.911-5.996 11.383-15.266 9.077-26.959l-1.183-.696z"/><path fill="#3678b5" d="M360.088 379.478c1.936-2.516 5.198-4.449 8.119-5.659 39.561-16.391 81.446-26.97 124.188-30.203 6.697-.507 17.108-2.263 22.442 1.974l5.949.126 1.493-.289.056.544-.35 1.394q-.205 48.902.209 97.804c.095 7.989-.454 17.147-.165 24.806l-.08.641.025.397c.133 1.293.231 2.95.529 4.176l-3.157.049c.21-.004-4.451-1.273-4.747-1.346-5.892 5.1-21.05 3.83-29.39 4.936-19.571 2.595-38.623 6.349-57.355 12.739-4.5 1.512-9.204 2.204-13.23 4.767-2.872 1.828-6.709 4.042-8.985.368.014-.236-.222-1.282-.277-1.559l-.28-.666-1.887-4.475c-.286-1.89-23.034-58.358-23.885-59.61-2.323-7.509-12.092-32.353-15.422-39.014-.137-1.306-3.39-9.039-4.128-10.946z"/><path fill="#0d3678" d="m514.837 345.59 5.949.126 1.493-.289.056.544-.35 1.394q-.205 48.902.209 97.804c.095 7.989-.454 17.147-.165 24.806l-.08.641.025.397c.133 1.293.231 2.95.529 4.176l-3.157.049c.21-.004-4.451-1.273-4.747-1.346l-.295-1.314c.041-.418.404-1.705.527-2.186l-2.884-.92c.059-7.247.598-16.572 1.489-23.709l-.011-69.071c-.591-8.343-1.789-22.27-1.043-30.299z"/><path fill="#1d5196" d="m514.837 345.59 5.949.126q-2.339.347-4.688.61l.351.323c-1.41 2.155-2.823 25.909-3.024 30.043-.591-8.343-1.789-22.27-1.043-30.299z"/><path fill="#1d5196" d="M511.947 469.472c.059-7.247.598-16.572 1.489-23.709.338 7.069 2.852 18.548 1.395 24.629z"/><path fill="#011635" d="M514.831 470.392c2.702.486 4.411.86 7.118.224l.025.397c.133 1.293.231 2.95.529 4.176l-3.157.049c.21-.004-4.451-1.273-4.747-1.346l-.295-1.314c.041-.418.404-1.705.527-2.186"/><path fill="#3678b5" d="m520.786 345.716 1.493-.289.056.544-.35 1.394c-2.266.059-3.281-.251-5.536-.716l-.351-.323q2.35-.263 4.688-.61"/><path fill="#0d3678" d="m511.947 469.472 2.884.92c-.123.481-.486 1.768-.527 2.186l.295 1.314c-5.892 5.1-21.05 3.83-29.39 4.936-19.571 2.595-38.623 6.349-57.355 12.739-4.5 1.512-9.204 2.204-13.23 4.767-2.872 1.828-6.709 4.042-8.985.368.014-.236-.222-1.282-.277-1.559l-.28-.666 2.825-2.635a266.2 266.2 0 0 1 71.924-18.882c11.043-1.343 21.062-.865 32.116-3.488"/><path fill="#001f4d" d="M405.362 495.143c4.706-.104 20.981-6.213 26.912-8.035a325 325 0 0 1 24.143-6.386 246 246 0 0 1 29.428-4.672c7.526-.717 21.902-1.315 28.459-3.472l.295 1.314c-5.892 5.1-21.05 3.83-29.39 4.936-19.571 2.595-38.623 6.349-57.355 12.739-4.5 1.512-9.204 2.204-13.23 4.767-2.872 1.828-6.709 4.042-8.985.368.014-.236-.222-1.282-.277-1.559"/><path fill="#7ec2f4" d="M360.088 379.478c1.936-2.516 5.198-4.449 8.119-5.659 39.561-16.391 81.446-26.97 124.188-30.203 6.697-.507 17.108-2.263 22.442 1.974l-2.455.803c-43.867 1.96-81.784 8.114-123.376 23.195-8.195 2.972-18.113 7.613-26.542 10.304-.749.239-1.663-.09-2.376-.414"/><path fill="#1d5196" d="M359.76 380.432c1.586.154 2.336.123 3.443 1.339 3.207 3.524 31.184 77.731 35.223 88.145 2.115 5.456 6.003 17.749 9.481 21.926l-2.825 2.635-1.887-4.475c-.286-1.89-23.034-58.358-23.885-59.61-2.323-7.509-12.092-32.353-15.422-39.014-.137-1.306-3.39-9.039-4.128-10.946"/><path fill="#fec50f" d="M522.279 345.427c3.775-3.273 7.548-3.153 12.448-2.858 40.667 2.443 79.66 9.623 117.926 23.926 4.657 1.741 16.894 6.145 20.703 8.691l1.367 2.942.147.276c-13.706 36.573-30.682 74.359-45.242 111.058-.446 2.745-.768 2.172.152 4.359 2.391 1.664 4.391 1.756 4.742 4.732l-.977 2.223c-4.755-2.592-9.244-1.457-13.325-3.112-18.42-7.466-37.475-13.547-57.176-16.525a326 326 0 0 0-22.915-2.507c-8.229-.539-13.349.554-20.783-3.394l3.157-.049c-.298-1.226-.396-2.883-.529-4.176l-.025-.397.08-.641c-.289-7.659.26-16.817.165-24.806a7721 7721 0 0 1-.209-97.804l.35-1.394z"/><path fill="#b97700" d="m674.723 378.128.147.276c-13.706 36.573-30.682 74.359-45.242 111.058-.446 2.745-.768 2.172.152 4.359 2.391 1.664 4.391 1.756 4.742 4.732l-.977 2.223c-4.755-2.592-9.244-1.457-13.325-3.112-18.42-7.466-37.475-13.547-57.176-16.525a326 326 0 0 0-22.915-2.507c-8.229-.539-13.349.554-20.783-3.394l3.157-.049c-.298-1.226-.396-2.883-.529-4.176l-.025-.397.08-.641c8.047 1.23 21.662 1.164 31.154 2.374 26.849 3.425 46.644 9.932 71.803 18.582 1.31-2.638 2.405-5.529 3.585-8.275 14.629-34.063 27.935-68.733 42.561-102.77.586-1.364 2.273-1.436 3.591-1.758"/><path fill="#663d00" d="M521.974 471.013c.624 1.222.564 1.819 2.04 2.091 13.017 2.399 26.499 1.909 39.581 4.347a322 322 0 0 1 39.442 9.718c6.277 1.991 18.133 7.356 24.158 6.847l2.433-4.554c-.446 2.745-.768 2.172.152 4.359 2.391 1.664 4.391 1.756 4.742 4.732l-.977 2.223c-4.755-2.592-9.244-1.457-13.325-3.112-18.42-7.466-37.475-13.547-57.176-16.525a326 326 0 0 0-22.915-2.507c-8.229-.539-13.349.554-20.783-3.394l3.157-.049c-.298-1.226-.396-2.883-.529-4.176"/><path fill="#011511" d="m519.346 475.238 3.157-.049c3.113 2.159 14.325 2.216 18.635 2.543a293 293 0 0 1 20.685 2.402c17.654 2.595 35.163 7.708 51.978 13.52 2.719.94 8.023 3.321 10.58 3.105 1.744-.826 1.81-1.137 2.814-2.743l2.433-4.554c-.446 2.745-.768 2.172.152 4.359 2.391 1.664 4.391 1.756 4.742 4.732l-.977 2.223c-4.755-2.592-9.244-1.457-13.325-3.112-18.42-7.466-37.475-13.547-57.176-16.525a326 326 0 0 0-22.915-2.507c-8.229-.539-13.349.554-20.783-3.394"/><path fill="#feea6b" d="M522.279 345.427c3.775-3.273 7.548-3.153 12.448-2.858 40.667 2.443 79.66 9.623 117.926 23.926 4.657 1.741 16.894 6.145 20.703 8.691-1.093 1.718-.618 1.508-2.2 2.304-5.722-1.425-17.459-6.857-23.938-9.15a392 392 0 0 0-51.569-14.219c-17.673-3.559-35.096-5.496-53.005-7.142-5.242-.482-17.534.296-20.309-1.008z"/><path fill="#047652" d="M865.751 538.071c.714 2.534 1.834 4.758 3.55 6.77 1.657.964 2.257 1.252 3.651 2.522 17.246 27.566 31.518 61.493 41.366 92.38 1.421 4.454 5.262 16.579 5.752 20.996 1.533 8.337-2.634 18.122-9.998 22.06-9.653 5.161-20.404 9.521-30.389 14.089l-30.099 13.796c-6.639 3.058-19.265 9.669-26.251 10.066-19.492 2.429-20.154-12.745-24.675-27.132a454 454 0 0 0-10.04-28.275c-6.158-15.306-14.443-29.816-22.362-44.236-1.145-2.086-.193-6.423-1.383-8.492-1.369-2.378-4.086-.512-5.665-3.325 2.59.203 3.264.451 5.58-.477 6.715-3.456 23.197-15.7 29.757-20.346a5163 5163 0 0 1 53.355-37.336c2.078-2.204 13.662-9.368 17.851-13.06"/><path fill="#003825" d="M865.751 538.071c.714 2.534 1.834 4.758 3.55 6.77l-.794.847c-.159 2.06-.468 2.237-1.77 3.976l.273 1.056c-11.617 7.295-90.451 64.732-95.922 66.046 12.224 17.24 21.169 39.879 28.822 59.561 4.527 11.643 6.785 27.441 13.845 36.582q1.05.654 2.147 1.228c4.139 2.132 7.643 2.642 12.105 1.231 9.958-3.148 79.325-34.75 84.615-39.86 3.781-3.652 4.854-9.743 7.215-14.327l.233-.442c1.533 8.337-2.634 18.122-9.998 22.06-9.653 5.161-20.404 9.521-30.389 14.089l-30.099 13.796c-6.639 3.058-19.265 9.669-26.251 10.066-19.492 2.429-20.154-12.745-24.675-27.132a454 454 0 0 0-10.04-28.275c-6.158-15.306-14.443-29.816-22.362-44.236-1.145-2.086-.193-6.423-1.383-8.492-1.369-2.378-4.086-.512-5.665-3.325 2.59.203 3.264.451 5.58-.477 6.715-3.456 23.197-15.7 29.757-20.346a5163 5163 0 0 1 53.355-37.336c2.078-2.204 13.662-9.368 17.851-13.06"/><path fill="#011511" d="M847.9 551.131c-.083.892.149 1.348-.523 1.8-27.516 18.5-54.495 39.603-82.275 57.544l.337.68c1.004 2.056 1.815 4.094 2.276 6.343 1.629 7.952 7.179 14.092 10.761 21.2 6.451 12.588 11.899 25.575 17.127 38.708 4.38 11 5.322 22.816 11.033 33.308 3.775 6.937 8.721 10.175 16.697 10.036-19.492 2.429-20.154-12.745-24.675-27.132a454 454 0 0 0-10.04-28.275c-6.158-15.306-14.443-29.816-22.362-44.236-1.145-2.086-.193-6.423-1.383-8.492-1.369-2.378-4.086-.512-5.665-3.325 2.59.203 3.264.451 5.58-.477 6.715-3.456 23.197-15.7 29.757-20.346a5163 5163 0 0 1 53.355-37.336"/><defs><linearGradient id="g" x1="817.852" x2="819.905" y1="580.17" y2="583.21" gradientUnits="userSpaceOnUse"><stop offset="0" stop-color="#10a270"/><stop offset="1" stop-color="#2cbe88"/></linearGradient></defs><path fill="url(#g)" d="M768.423 616.439c3.325-3.682 14.182-10.83 18.695-13.965l31.429-21.879 31.464-22.437c5.353-3.799 12.911-9.43 18.496-12.47-.159 2.06-.468 2.237-1.77 3.976l.273 1.056c-11.617 7.295-90.451 64.732-95.922 66.046z"/><path fill="#005d41" d="m768.423 616.439 2.665.327c12.224 17.24 21.169 39.879 28.822 59.561 4.527 11.643 6.785 27.441 13.845 36.582-1.748-.774-1.775-1.361-4.056-2.109l.304.454c-4.131-2.672-7.706-17.798-9.38-23.086a302 302 0 0 0-10.354-28.497c-6.749-16.107-13.366-28.117-21.846-43.232"/><path fill="#25b580" d="M869.301 544.841c1.657.964 2.257 1.252 3.651 2.522l-5.942 3.357-.273-1.056c1.302-1.739 1.611-1.916 1.77-3.976z"/><path fill="#f5f5f4" d="M808.263 283.179c5.763-6.418 11.965-14.313 17.506-21.042l29.756-35.868c5.437-6.505 17.449-23.367 25.192-24.491a9.94 9.94 0 0 1 7.682 2.065c3.65 2.878 4.278 5.831 4.795 10.093-.381 2.361-.659 4.133-2.144 6.046-11.594 14.934-24.217 29.433-36.215 44.055l-22.901 27.933c-5.335 6.564-10.716 14.418-17.13 19.898-1.71 1.461-6.879 2.063-9.229 1.48-4.496-1.116-6.738-3.335-9.474-6.774-10.465-13.052-25.746-29.925-34.291-44.136-.453-.753-.405-3.917-.393-4.972 8.206-23.96 28.148 2.108 35.015 11.57 3.345 4.61 8.023 9.821 11.831 14.143"/><defs><linearGradient id="h" x1="833.955" x2="856.128" y1="254.068" y2="269.13" gradientUnits="userSpaceOnUse"><stop offset="0" stop-color="#848382"/><stop offset="1" stop-color="#a6a5a5"/></linearGradient></defs><path fill="url(#h)" d="M893.194 213.936c-.381 2.361-.659 4.133-2.144 6.046-11.594 14.934-24.217 29.433-36.215 44.055l-22.901 27.933c-5.335 6.564-10.716 14.418-17.13 19.898-1.71 1.461-6.879 2.063-9.229 1.48-4.496-1.116-6.738-3.335-9.474-6.774l1.373-.444.709.448c3.303 2.053 7.529 3.261 11.397 2.274 2.647-.779 4.076-1.408 6.033-3.488 6.948-7.386 12.953-16.045 19.408-23.949a5622 5622 0 0 1 42.378-51.23c4.157-5.035 8.826-10.892 13.2-15.788.821-.919 1.42-.58 2.595-.461"/><path fill="#9e9c9c" d="M761.417 257.466c2.076 4.907 9.682 11.479 14.441 17.117 8.788 10.413 18.174 25.32 28.968 33.704.302.234 4.022.51 4.754.565-3.868.987-8.094-.221-11.397-2.274l-.709-.448-1.373.444c-10.465-13.052-25.746-29.925-34.291-44.136-.453-.753-.405-3.917-.393-4.972"/><path fill="#25b580" d="M839.561 408.557c2.729-5.358 14.614-14.097 19.573-18.384 5.67-4.9 12.018-11.381 18.784-4.844.834 1.216 1.78 2.405 2.265 3.779-.227 2.234-.299 4.7-1.399 6.655-1.334 5.117-20.719 19.291-25.949 23.016-2.841 2.024-8.742 3.944-10.776-.49-1.95-1.299-2.407-3.05-2.916-5.175.033-1.656.213-2.929.418-4.557"/><path fill="#005d41" d="M880.183 389.108c-.227 2.234-.299 4.7-1.399 6.655-1.334 5.117-20.719 19.291-25.949 23.016-2.841 2.024-8.742 3.944-10.776-.49-1.95-1.299-2.407-3.05-2.916-5.175 2.997 1.557 5.205 2.725 8.36 3.944 10.335-6.062 25.224-18.87 32.68-27.95"/><path fill="#011511" d="M878.784 395.763c-1.334 5.117-20.719 19.291-25.949 23.016-2.841 2.024-8.742 3.944-10.776-.49 7.822 3.491 13.785-3.293 19.6-7.916 5.827-4.631 11.555-9.676 17.125-14.61"/><path fill="#42d5a0" d="M839.561 408.557c2.729-5.358 14.614-14.097 19.573-18.384 5.67-4.9 12.018-11.381 18.784-4.844-1.641.884-2.773.36-4.662.018l-2.107-.375c-9.049 5.093-25.018 23.805-31.588 23.585"/><path fill="#25b580" d="M792.805 382.619c.319-1.352 1.319-5.558 1.961-6.747 4.336-8.028 7.541-41.864 22.748-28.045l1.891 2.761c.243 2.692.08 3.151-.623 5.787.506 4.826-2.901 12.196-4.385 17.707-2.069 7.682-8.46 26.021-19.305 15.919-1.501-1.398-1.921-2.798-2.26-4.867l.257-1.063z"/><path fill="#42d5a0" d="M792.805 382.619c.319-1.352 1.319-5.558 1.961-6.747 4.336-8.028 7.541-41.864 22.748-28.045-3.316 1.598-8.227-1.98-10.87 2.426-3.903 6.504-6.35 30.275-13.839 32.366"/><path fill="#011511" d="M818.782 356.375c.506 4.826-2.901 12.196-4.385 17.707-2.069 7.682-8.46 26.021-19.305 15.919-1.501-1.398-1.921-2.798-2.26-4.867l.257-1.063.488.188c5.6 2.194 6.529 5.129 12.274 1.627l2.29 1.215c3.056-6.536 7.951-22.971 10.641-30.726"/><path fill="#005d41" d="m793.089 384.071.488.188c5.6 2.194 6.529 5.129 12.274 1.627l2.29 1.215c-6.181 6.389-10.501 4.015-15.309-1.967z"/><path fill="#047652" d="M819.405 350.588c.243 2.692.08 3.151-.623 5.787-2.69 7.755-7.585 24.19-10.641 30.726l-2.29-1.215c5.699-10.726 6.784-24.776 13.554-35.298"/><path fill="#25b580" d="M728.504 351.021c3.254-6.648 8.011-8.539 13.915-3.678 3.685 5.348 10.284 27.146 12.603 34.267-.063 1.996.034 3.138-.596 5.003-6.667 16.616-18.301-.866-20.011-9.799-.806-4.212-4.141-11.843-3.722-15.821-.659-3.051-1.866-4.783-2.395-8.663z"/><path fill="#011635" d="M730.693 360.993a948 948 0 0 0 8.832 25.83l2.164-1.504c6.173 4.197 8.671.549 13.333-3.709-.063 1.996.034 3.138-.596 5.003-6.667 16.616-18.301-.866-20.011-9.799-.806-4.212-4.141-11.843-3.722-15.821"/><path fill="#005d41" d="M741.689 385.319c6.173 4.197 8.671.549 13.333-3.709-.063 1.996.034 3.138-.596 5.003-5.774 3.888-9.814 6.724-14.901.21z"/><path fill="#14a370" d="M728.298 352.33c3.288 1.868 4.934 6.539 5.813 10.101 1.752 7.092 6.179 15.982 7.578 22.888l-2.164 1.504a948 948 0 0 1-8.832-25.83c-.659-3.051-1.866-4.783-2.395-8.663"/><path fill="#42d5a0" d="M728.504 351.021c3.254-6.648 8.011-8.539 13.915-3.678-2.424 1.23-3.638.685-6.451.114-2.648 1.923-4.351 3.82-7.464 3.564"/><path fill="#25b580" d="M864.638 456.749c9.553-1.001 31.589-4.526 39.389.573 1.369 1.7 1.317 1.673 2.118 3.73-.056 2.315.165 4.47-.889 6.443-6.762 5.991-26.827 4.337-35.839 4.544-4.921.113-8.224-2.021-9.313-7.061l.919-3.493c1.219-2.414 1.684-2.8 3.615-4.736"/><path fill="#005d41" d="M906.145 461.052c-.056 2.315.165 4.47-.889 6.443-6.762 5.991-26.827 4.337-35.839 4.544-4.921.113-8.224-2.021-9.313-7.061 1.996.752 5.098 3.158 6.91 4.503a1239 1239 0 0 0 32.412-1.643c3.439-2.007 4.37-3.626 6.719-6.786"/><path fill="#42d5a0" d="M864.638 456.749c9.553-1.001 31.589-4.526 39.389.573l-1.266.809c-3.146-.292-8.165-.513-11.153-.588-8.169-.205-16.235.708-24.308 1.041-1.692 1.359-3 2.723-5.059 3.178l-1.218-.277c1.219-2.414 1.684-2.8 3.615-4.736"/></svg>